<svg width="21" height="16" viewBox="0 0 21 16" fill="none" xmlns="http://www.w3.org/2000/svg">
<path d="M14.2499 14.4993C11.355 14.4993 9 12.1445 9 9.24965C9 6.35484 11.355 4 14.2499 4C17.1449 4 19.4999 6.35484 19.4999 9.24965C19.4999 12.1445 17.1449 14.4993 14.2499 14.4993ZM14.2499 5.4999C12.1822 5.4999 10.5 7.18204 10.5 9.24965C10.5 11.3173 12.1822 12.9994 14.2499 12.9994C16.3177 12.9994 17.9999 11.3173 17.9999 9.24965C17.9999 7.18204 16.3177 5.4999 14.2499 5.4999Z" fill="#666666"/>
<path d="M20.7801 14.7191L18.9854 12.9244C18.6775 13.3208 18.3212 13.677 17.9249 13.9849L19.7196 15.7795C19.7891 15.8494 19.8717 15.9048 19.9627 15.9427C20.0537 15.9805 20.1513 16 20.2499 16C20.3484 16 20.446 15.9805 20.537 15.9427C20.628 15.9048 20.7106 15.8494 20.7801 15.7795C20.8498 15.7099 20.9051 15.6273 20.9428 15.5363C20.9806 15.4453 21 15.3478 21 15.2493C21 15.1508 20.9806 15.0533 20.9428 14.9623C20.9051 14.8713 20.8498 14.7886 20.7801 14.7191Z" fill="#666666"/>
<path d="M15 0H1C0.4 0 0 0.4 0 1C0 1.6 0.4 2 1 2H15C15.6 2 16 1.6 16 1C16 0.4 15.6 0 15 0Z" fill="#666666"/>
<path d="M9.80957 5H1C0.4 5 0 5.4 0 6C0 6.6 0.4 7 1 7H8.49816C8.80993 6.25239 9.25731 5.57548 9.80957 5Z" fill="#666666"/>
<path d="M8.01894 10C8.0725 10.7039 8.23817 11.3766 8.49816 12H1C0.4 12 0 11.6 0 11C0 10.4 0.4 10 1 10H8.01894Z" fill="#666666"/>
</svg>
