<svg width="46" height="37" viewBox="0 0 46 37" fill="none" xmlns="http://www.w3.org/2000/svg">
<path d="M0 37V24.838C0 20.1559 0.738272 15.8164 2.21482 11.8194C3.80494 7.82253 6.47407 3.88271 10.2222 0L16.8667 4.96759C13.9136 8.27932 11.8691 11.3056 10.7333 14.0463C9.71111 16.6728 9.2 19.4707 9.2 22.4398L5.11111 19.5278H17.3778V37H0ZM28.6222 37V24.838C28.6222 20.1559 29.3605 15.8164 30.837 11.8194C32.4272 7.82253 35.0963 3.88271 38.8444 0L45.4889 4.96759C42.5358 8.27932 40.4914 11.3056 39.3556 14.0463C38.3333 16.6728 37.8222 19.4707 37.8222 22.4398L33.7333 19.5278H46V37H28.6222Z" fill="#EAEBFF"/>
</svg>
