<svg width="16" height="16" viewBox="0 0 16 16" fill="none" xmlns="http://www.w3.org/2000/svg">
<path d="M15.2213 7.62998C15.104 7.45465 12.3073 3.33331 8 3.33331C3.67067 3.33331 0.893338 7.45665 0.777338 7.63198C0.629338 7.85531 0.629338 8.14598 0.778671 8.36931C0.896004 8.54531 3.69267 12.6666 8 12.6666C12.2853 12.6666 15.102 8.54731 15.22 8.37198C15.3707 8.14798 15.3713 7.85465 15.2213 7.62998ZM8 11.3333C5.1 11.3333 2.91 8.93598 2.16467 7.99865C2.60334 7.44398 3.548 6.38198 4.84734 5.60531C4.73334 5.93865 4.66667 6.29398 4.66667 6.66665C4.66667 8.50465 6.162 9.99998 8 9.99998C9.838 9.99998 11.3333 8.50465 11.3333 6.66665C11.3333 6.29665 11.2673 5.94331 11.1547 5.61198C12.448 6.38798 13.3927 7.44531 13.8333 7.99931C13.082 8.93798 10.8827 11.3333 8 11.3333Z" fill="#C0C0C0"/>
</svg>
