<svg width="23" height="21" viewBox="0 0 23 21" fill="none" xmlns="http://www.w3.org/2000/svg">
<path d="M11.6418 20.9779L8.51925 20.0069L11.0006 12.0275L2.82062 12.1768L2.76123 8.90737L15.4674 8.67544L11.6418 20.9779Z" fill="#EAEBFF"/>
<path d="M11.5485 0.0222168L8.44242 1.04514L10.0625 5.96455L13.1686 4.94162L11.5485 0.0222168Z" fill="#EAEBFF"/>
<path d="M18.4896 12.1743L16.5491 14.8065L20.8207 17.9557L22.7612 15.3235L18.4896 12.1743Z" fill="#EAEBFF"/>
<path d="M20.792 2.9595L16.5474 5.98623L18.4461 8.64886L22.6907 5.62213L20.792 2.9595Z" fill="#EAEBFF"/>
<path d="M13.6554 6.11743L15.8548 8.31681L11.1781 12.9887L7.34481 9.15535L0.23877 16.2614L1.59481 17.6174L7.34481 11.8674L11.1781 15.7008L17.2061 9.66806L19.4054 11.8674V6.11743H13.6554Z" fill="#FF006E"/>
</svg>
