<svg width="18" height="16" viewBox="0 0 18 16" fill="none" xmlns="http://www.w3.org/2000/svg">
<path d="M4.19969 16V5.20483H0.611598V16H4.19969ZM2.40611 3.73004C3.65734 3.73004 4.43617 2.9011 4.43617 1.8652C4.41286 0.805935 3.65739 0 2.42985 0C1.20251 0 0.399902 0.805951 0.399902 1.8652C0.399902 2.90115 1.17854 3.73004 2.38268 3.73004H2.406H2.40611ZM6.18569 16H9.77378V9.97145C9.77378 9.64881 9.79709 9.3265 9.89184 9.09586C10.1512 8.45124 10.7416 7.78359 11.7328 7.78359C13.0312 7.78359 13.5506 8.77354 13.5506 10.2247V15.9999H17.1385V9.81007C17.1385 6.49422 15.3683 4.95139 13.0076 4.95139C11.0719 4.95139 10.2221 6.03334 9.74991 6.77025H9.77386V5.2046H6.18577C6.23286 6.21756 6.18577 15.9998 6.18577 15.9998L6.18569 16Z" fill="#737373"/>
</svg>
