<svg width="114" height="40" viewBox="0 0 114 40" fill="none" xmlns="http://www.w3.org/2000/svg">
<path d="M16.1844 22.5631C14.4017 24.297 12.1822 25.164 9.52609 25.164C6.76301 25.1617 4.49064 24.3079 2.70904 22.603C0.903012 20.8691 0 18.6311 0 15.8893C0.00785359 14.7376 0.218622 13.5962 0.622747 12.5168C1.02783 11.4378 1.56257 10.4114 2.21537 9.45998L7.36828 1.94693C7.63103 1.56148 7.98485 1.24596 8.39872 1.028C8.81264 0.810051 9.27402 0.69632 9.7424 0.696779H15.382L10.0913 7.89076C10.0816 7.90181 10.0763 7.91597 10.0763 7.93066C10.0763 7.9453 10.0816 7.95946 10.0913 7.97051C10.0994 7.97796 10.1092 7.98329 10.1198 7.986C10.1305 7.98875 10.1417 7.98879 10.1523 7.98613C10.2737 7.94925 10.398 7.92258 10.5239 7.90638C10.6223 7.89307 10.7212 7.88495 10.8204 7.88211L11.2967 7.86999C13.526 7.86999 15.3634 8.6791 16.8089 10.2974C18.2044 11.8591 18.9021 13.7664 18.9021 16.0194C18.8964 18.641 17.9905 20.8222 16.1844 22.5631ZM11.7415 14.1727C11.4211 13.8697 11.0437 13.6326 10.6309 13.4749C10.2181 13.3172 9.77803 13.242 9.33599 13.2537C8.90747 13.2423 8.48101 13.3161 8.08169 13.471C7.68233 13.6258 7.31819 13.8585 7.01071 14.1554C6.70546 14.4509 6.46513 14.8061 6.3048 15.1985C6.14448 15.5909 6.06768 16.0121 6.0792 16.4355C6.06862 16.8681 6.1439 17.2986 6.30069 17.7023C6.45754 18.1061 6.69287 18.475 6.99325 18.7884C7.29176 19.1072 7.65491 19.3597 8.05874 19.5288C8.46257 19.698 8.89787 19.7802 9.33599 19.7698C10.2229 19.7881 11.0814 19.4585 11.7258 18.8525C12.049 18.5591 12.3056 18.2006 12.4786 17.8008C12.6515 17.4011 12.7368 16.9694 12.7288 16.5343C12.7414 16.0937 12.6598 15.6554 12.4897 15.2484C12.3195 14.8413 12.0645 14.4747 11.7415 14.1727Z" fill="#47496F"/>
<path d="M68.4498 12.5662C68.4498 16.1921 67.257 19.2064 64.8725 21.6093C62.4879 24.0122 59.4872 25.2165 55.8702 25.2222C54.2295 25.2548 52.5987 24.9555 51.0758 24.3422C49.554 23.7287 48.1697 22.8139 47.0088 21.6525C45.8248 20.5161 44.8872 19.146 44.2589 17.6288C43.6295 16.1116 43.3214 14.4801 43.3544 12.8375C43.3181 11.2003 43.6306 9.57407 44.271 8.06743C44.9114 6.56078 45.8655 5.20822 47.0693 4.10011C49.2448 2.11424 52.0288 0.925031 54.9657 0.726434C57.9026 0.527782 60.8208 1.33146 63.2428 3.00637C65.4282 4.41665 67.0336 6.56728 67.7665 9.0652H61.0035C60.5193 8.11283 59.7722 7.31928 58.8523 6.77824C57.9323 6.23719 56.876 5.97135 55.8097 6.01213C54.9316 5.98821 54.059 6.15695 53.2535 6.50667C52.448 6.85627 51.7283 7.37836 51.1451 8.03612C49.9578 9.35772 49.3218 11.0858 49.3691 12.8633C49.3042 14.6819 49.9171 16.4596 51.089 17.8499C51.67 18.5328 52.3963 19.0762 53.215 19.4399C54.0337 19.8036 54.9228 19.9784 55.8185 19.9514C57.0674 19.9902 58.3021 19.6688 59.3738 19.0256C60.4225 18.3712 61.1796 17.3383 61.4888 16.1404H54.4386V11.3389H68.4025C68.4025 11.5241 68.4025 11.7352 68.4322 11.9634L68.4498 12.5662Z" fill="#47496F"/>
<path d="M69.5906 24.6541V1.26709H75.2947V24.6541H69.5906Z" fill="#47496F"/>
<path d="M93.3267 24.6541L92.1875 21.2754H84.0794L82.8375 24.6541H76.4355L85.8249 1.26709H90.5184L99.8226 24.6541H93.3267ZM88.2061 8.54944H88.1121L85.7047 16.5399H90.6124L88.2061 8.54944Z" fill="#47496F"/>
<path d="M106.778 16.1559V24.6541H100.944V16.1559L94.1184 1.26709H100.448L103.84 10.6526L107.261 1.26709H113.513L106.778 16.1559Z" fill="#47496F"/>
<path d="M110.691 37.9866H109.787V34.7609L106.972 30.2476H107.992L110.225 33.8568H110.259L112.499 30.2476H113.512L110.691 34.7609V37.9866Z" fill="#1D0A30"/>
<path d="M106.678 37.9864L105.849 35.7195H102.623L101.794 37.9864H100.849L103.76 30.2474H104.726L107.636 37.9864H106.678ZM104.219 31.261L102.863 34.9661H105.602L104.246 31.261H104.219ZM103.904 28.1243H104.582L106.116 29.72H105.274L104.253 28.6585H104.226L103.205 29.72H102.363L103.904 28.1243Z" fill="#1D0A30"/>
<path d="M99.8152 37.9866H98.9111V30.2476H99.8152V37.9866Z" fill="#1D0A30"/>
<path d="M97.5549 34.8296C97.5549 35.8523 97.2604 36.6559 96.6714 37.2403C96.087 37.8202 95.2766 38.1101 94.2401 38.1101C93.1489 38.1101 92.2768 37.7449 91.6239 37.0143C90.971 36.2838 90.6445 35.3044 90.6445 34.0762C90.6445 32.8708 90.9687 31.912 91.6171 31.1998C92.2654 30.4829 93.1375 30.1245 94.2333 30.1245C95.0734 30.1245 95.7925 30.3528 96.3906 30.8094C96.9887 31.2614 97.3586 31.8618 97.5001 32.6106H96.5687C96.418 32.0947 96.1349 31.6883 95.7194 31.3915C95.3039 31.0947 94.8086 30.9464 94.2333 30.9464C93.416 30.9464 92.7676 31.2272 92.2882 31.7888C91.8134 32.3458 91.576 33.1083 91.576 34.0762C91.576 35.0533 91.8179 35.8341 92.3019 36.4185C92.7859 36.9983 93.432 37.2883 94.2401 37.2883C94.9661 37.2883 95.5482 37.0851 95.9865 36.6787C96.4249 36.2724 96.6486 35.7313 96.6577 35.0556V34.7953H94.3291V34.042H97.5549V34.8296Z" fill="#1D0A30"/>
<path d="M86.7204 34.8296C86.7204 35.8523 86.4259 36.6559 85.8369 37.2403C85.2525 37.8202 84.4421 38.1101 83.4056 38.1101C82.3144 38.1101 81.4423 37.7449 80.7894 37.0143C80.1365 36.2838 79.8101 35.3044 79.8101 34.0762C79.8101 32.8708 80.1342 31.912 80.7826 31.1998C81.4309 30.4829 82.303 30.1245 83.3988 30.1245C84.2389 30.1245 84.958 30.3528 85.5561 30.8094C86.1543 31.2614 86.5241 31.8618 86.6656 32.6106H85.7342C85.5835 32.0947 85.3004 31.6883 84.885 31.3915C84.4695 31.0947 83.9741 30.9464 83.3988 30.9464C82.5815 30.9464 81.9332 31.2272 81.4538 31.7888C80.9789 32.3458 80.7415 33.1083 80.7415 34.0762C80.7415 35.0533 80.9835 35.8341 81.4674 36.4185C81.9514 36.9983 82.5975 37.2883 83.4056 37.2883C84.1316 37.2883 84.7137 37.0851 85.1521 36.6787C85.5904 36.2724 85.8141 35.7313 85.8232 35.0556V34.7953H83.4947V34.042H86.7204V34.8296Z" fill="#1D0A30"/>
<path d="M73.153 37.9866H72.2695V30.2476H73.1119L77.5841 36.384H77.6184V30.2476H78.5087V37.9866H77.68L73.1941 31.8365H73.153V37.9866Z" fill="#1D0A30"/>
<path d="M66.1195 29.6242L64.6744 28.0764H65.6537L66.9002 29.6242H66.1195ZM68.811 37.329C68.254 37.8495 67.5029 38.1098 66.5578 38.1098C65.6127 38.1098 64.8593 37.8495 64.2977 37.329C63.7407 36.8085 63.4622 36.1237 63.4622 35.2744V30.2475H64.3662V35.2059C64.3662 35.8269 64.5625 36.3268 64.9552 36.7058C65.3478 37.0848 65.882 37.2742 66.5578 37.2742C67.2335 37.2742 67.7677 37.0848 68.1604 36.7058C68.553 36.3268 68.7494 35.8269 68.7494 35.2059V30.2475H69.8383C70.2995 30.2475 70.53 30.0329 70.53 29.6037V28.5627H71.3656V29.768C71.3656 30.1333 71.2514 30.4187 71.0231 30.6241C70.7949 30.8296 70.4775 30.9323 70.0712 30.9323L69.6534 30.9255V35.2744C69.6534 36.1237 69.3726 36.8085 68.811 37.329Z" fill="#1D0A30"/>
<path d="M59.7639 37.9866H58.853V31.0557H56.2642V30.2476H62.3527V31.0557H59.7639V37.9866Z" fill="#1D0A30"/>
<path d="M50.2031 37.9866H49.2922V31.0557H46.7034V30.2476H52.7919V31.0557H50.2031V37.9866Z" fill="#1D0A30"/>
<path d="M46.3949 37.9864L45.5662 35.7195H42.3405L41.5118 37.9864H40.5667L43.4774 30.2474H44.443L47.3537 37.9864H46.3949ZM43.9362 31.261L42.5802 34.9661H45.3197L43.9636 31.261H43.9362ZM43.6212 28.1243H44.2992L45.8333 29.72H44.9909L43.9705 28.6585H43.9431L42.9226 29.72H42.0802L43.6212 28.1243ZM44.4019 39.815C44.2787 39.9383 44.1303 39.9999 43.9568 39.9999C43.7833 39.9999 43.6349 39.9383 43.5116 39.815C43.3883 39.6963 43.3267 39.5525 43.3267 39.3836C43.3267 39.2146 43.3883 39.0685 43.5116 38.9452C43.6349 38.8265 43.7833 38.7672 43.9568 38.7672C44.1303 38.7672 44.2787 38.8265 44.4019 38.9452C44.5252 39.0685 44.5868 39.2146 44.5868 39.3836C44.5868 39.5525 44.5252 39.6963 44.4019 39.815Z" fill="#1D0A30"/>
<path d="M39.5258 37.9866H38.6218V34.439H34.1907V37.9866H33.2866V30.2476H34.1907V33.624H38.6218V30.2476H39.5258V37.9866Z" fill="#1D0A30"/>
<path d="M26.3215 37.9866H25.438V30.2476H26.2804L30.7526 36.384H30.7868V30.2476H31.6772V37.9866H30.8485L26.3626 31.8365H26.3215V37.9866Z" fill="#1D0A30"/>
<path d="M15.8772 30.2476H18.7537C19.5207 30.2476 20.1417 30.4736 20.6165 30.9256C21.0959 31.3776 21.3356 31.9734 21.3356 32.7131C21.3356 33.4482 21.0936 34.0417 20.6097 34.4938C20.1303 34.9458 19.5047 35.1718 18.7331 35.1718H16.7812V37.9866H15.8772V30.2476ZM16.7812 31.042V34.3842H18.5345C19.1189 34.3842 19.5755 34.2381 19.9042 33.9459C20.2376 33.6491 20.4042 33.2382 20.4042 32.7131C20.4042 32.188 20.2376 31.7794 19.9042 31.4872C19.5755 31.1904 19.1189 31.042 18.5345 31.042H16.7812Z" fill="#1D0A30"/>
<path d="M13.8913 37.9864L13.0626 35.7195H9.83681L9.00811 37.9864H8.06299L10.9737 30.2474H11.9394L14.8501 37.9864H13.8913ZM11.4326 31.261L10.0765 34.9661H12.816L11.46 31.261H11.4326ZM11.1175 28.1243H11.7955L13.3297 29.72H12.4873L11.4668 28.6585H11.4394L10.4189 29.72H9.57656L11.1175 28.1243ZM11.8983 39.815C11.775 39.9383 11.6266 39.9999 11.4531 39.9999C11.2796 39.9999 11.1312 39.9383 11.0079 39.815C10.8847 39.6963 10.823 39.5525 10.823 39.3836C10.823 39.2146 10.8847 39.0685 11.0079 38.9452C11.1312 38.8265 11.2796 38.7672 11.4531 38.7672C11.6266 38.7672 11.775 38.8265 11.8983 38.9452C12.0215 39.0685 12.0832 39.2146 12.0832 39.3836C12.0832 39.5525 12.0215 39.6963 11.8983 39.815Z" fill="#1D0A30"/>
<path d="M4.13165 38.1101C3.04042 38.1101 2.17291 37.7517 1.52913 37.0349C0.88992 36.3135 0.570312 35.3364 0.570312 34.1036C0.570312 32.8845 0.892202 31.9166 1.53598 31.1998C2.17976 30.4829 3.04498 30.1245 4.13165 30.1245C4.99002 30.1245 5.72055 30.3756 6.32324 30.8779C6.93049 31.3755 7.28206 32.017 7.37794 32.8024H6.48076C6.38031 32.259 6.11093 31.8139 5.67261 31.4669C5.23886 31.1199 4.7252 30.9464 4.13165 30.9464C3.32806 30.9464 2.68885 31.2317 2.21401 31.8024C1.73916 32.3686 1.50174 33.1334 1.50174 34.0968C1.50174 35.0739 1.73916 35.85 2.21401 36.4253C2.69342 37.0006 3.33491 37.2883 4.1385 37.2883C4.74575 37.2883 5.26169 37.1353 5.68631 36.8294C6.11093 36.5189 6.37575 36.1012 6.48076 35.5761H7.38479C7.25695 36.3568 6.9031 36.9755 6.32324 37.4321C5.74338 37.8841 5.01285 38.1101 4.13165 38.1101Z" fill="#1D0A30"/>
<path d="M29.7781 25.7877L25.9356 24.5927L28.9891 14.7735L18.9229 14.9572L18.8499 10.9339L34.4858 10.6485L29.7781 25.7877Z" fill="url(#paint0_linear_0_620)"/>
<path d="M29.6633 0L25.841 1.25879L27.8347 7.31251L31.6569 6.05371L29.6633 0Z" fill="url(#paint1_linear_0_620)"/>
<path d="M38.2049 14.9541L35.8169 18.1933L41.0734 22.0686L43.4614 18.8295L38.2049 14.9541Z" fill="url(#paint2_linear_0_620)"/>
<path d="M41.0381 3.61456L35.8149 7.3392L38.1514 10.6158L43.3746 6.89113L41.0381 3.61456Z" fill="url(#paint3_linear_0_620)"/>
<defs>
<linearGradient id="paint0_linear_0_620" x1="48.4854" y1="23.1018" x2="19.3942" y2="-0.855621" gradientUnits="userSpaceOnUse">
<stop stop-color="#8A26C4"/>
<stop offset="1" stop-color="#E62C4A"/>
</linearGradient>
<linearGradient id="paint1_linear_0_620" x1="48.4854" y1="23.1018" x2="19.3942" y2="-0.855621" gradientUnits="userSpaceOnUse">
<stop stop-color="#8A26C4"/>
<stop offset="1" stop-color="#E62C4A"/>
</linearGradient>
<linearGradient id="paint2_linear_0_620" x1="48.4854" y1="23.1018" x2="19.3942" y2="-0.855621" gradientUnits="userSpaceOnUse">
<stop stop-color="#8A26C4"/>
<stop offset="1" stop-color="#E62C4A"/>
</linearGradient>
<linearGradient id="paint3_linear_0_620" x1="48.4854" y1="23.1018" x2="19.3942" y2="-0.855621" gradientUnits="userSpaceOnUse">
<stop stop-color="#8A26C4"/>
<stop offset="1" stop-color="#E62C4A"/>
</linearGradient>
</defs>
</svg>
