<svg width="44" height="46" viewBox="0 0 44 46" fill="none" xmlns="http://www.w3.org/2000/svg">
<path d="M19.5851 45.2086L12.8486 43.1138L18.2018 25.8995L0.554749 26.2216L0.426636 19.1683L27.8381 18.6679L19.5851 45.2086Z" fill="url(#paint0_linear_24_1762)"/>
<path d="M19.3837 0L12.6829 2.2068L16.178 12.8196L22.8789 10.6128L19.3837 0Z" fill="url(#paint1_linear_24_1762)"/>
<path d="M34.3581 26.2162L30.1717 31.8948L39.387 38.6887L43.5734 33.0101L34.3581 26.2162Z" fill="url(#paint2_linear_24_1762)"/>
<path d="M39.325 6.33672L30.1682 12.8664L34.2643 18.6106L43.4212 12.0809L39.325 6.33672Z" fill="url(#paint3_linear_24_1762)"/>
<defs>
<linearGradient id="paint0_linear_24_1762" x1="52.381" y1="40.5" x2="1.38098" y2="-1.5" gradientUnits="userSpaceOnUse">
<stop stop-color="#8A26C4"/>
<stop offset="1" stop-color="#E62C4A"/>
</linearGradient>
<linearGradient id="paint1_linear_24_1762" x1="52.381" y1="40.5" x2="1.38098" y2="-1.5" gradientUnits="userSpaceOnUse">
<stop stop-color="#8A26C4"/>
<stop offset="1" stop-color="#E62C4A"/>
</linearGradient>
<linearGradient id="paint2_linear_24_1762" x1="52.381" y1="40.5" x2="1.38098" y2="-1.5" gradientUnits="userSpaceOnUse">
<stop stop-color="#8A26C4"/>
<stop offset="1" stop-color="#E62C4A"/>
</linearGradient>
<linearGradient id="paint3_linear_24_1762" x1="52.381" y1="40.5" x2="1.38098" y2="-1.5" gradientUnits="userSpaceOnUse">
<stop stop-color="#8A26C4"/>
<stop offset="1" stop-color="#E62C4A"/>
</linearGradient>
</defs>
</svg>
