<svg width="15" height="17" viewBox="0 0 15 17" fill="none" xmlns="http://www.w3.org/2000/svg">
<path d="M7.95351 0.0132034C8.83286 0 9.70604 0.0070418 10.5783 0C10.632 1.02722 11.0017 2.07469 11.7534 2.8C12.5052 3.54555 13.5658 3.88796 14.6001 4.0015V6.70732C13.6336 6.67387 12.6601 6.4723 11.7799 6.05595C11.397 5.88167 11.0413 5.65985 10.6919 5.43187C10.6849 7.39213 10.6989 9.35328 10.6787 11.3065C10.625 12.2466 10.316 13.1796 9.77206 13.9516C8.89272 15.2411 7.36817 16.08 5.804 16.1072C4.84368 16.1609 3.88335 15.8995 3.06474 15.4154C1.70832 14.6161 0.755031 13.1523 0.614195 11.582C0.600992 11.2466 0.59395 10.9104 0.607153 10.5812C0.727744 9.30574 1.35887 8.08311 2.33944 7.2513C3.45468 6.28481 5.01268 5.82093 6.46945 6.09644C6.48266 7.09022 6.44217 8.08399 6.44217 9.07776C5.7776 8.86299 4.9986 8.92373 4.41413 9.32599C3.99074 9.6015 3.66858 10.024 3.50133 10.5011C3.3605 10.8435 3.40099 11.2194 3.40715 11.582C3.56823 12.6832 4.6289 13.61 5.75735 13.5088C6.50906 13.5018 7.22733 13.0661 7.61727 12.4279C7.7449 12.2061 7.88574 11.9781 7.89278 11.7158C7.95968 10.5143 7.93327 9.31895 7.93943 8.11744C7.94647 5.41163 7.93327 2.71285 7.95351 0.0132034Z" fill="#737373"/>
</svg>
